<?xml version="1.0" encoding="UTF-8"?>
<svg id="Artwork" xmlns="http://www.w3.org/2000/svg" viewBox="0 0 1873.12 429.96">
  <path id="Norton_Logo_Primary_RGB" d="M1605.92,187.81h-93.32l8.47-12.7c3.35-5.02,8.98-8.03,15.01-8.03h117.6c14.41,0,23,16.06,15.01,28.04l-71.74,107.6c-3.35,5.02-8.98,8.03-15.01,8.03h-57.98s81.96-122.94,81.96-122.94ZM1512.59,167.08h-53.82s-95.79,143.67-95.79,143.67h57.98c6.03,0,11.66-3.01,15.01-8.03l76.61-114.92v-20.73ZM1105.15,310.76h202.09c6.03,0,11.66-3.01,15.01-8.03l81.09-121.62c4-5.99-.3-14.02-7.5-14.02h-202.09c-6.03,0-11.66,3.01-15.01,8.03l-81.09,121.63c-4,5.99.3,14.02,7.5,14.02ZM1265.78,286.01c-1.67,2.51-4.49,4.02-7.5,4.02h-88.51l65.46-98.19c1.67-2.51,4.49-4.02,7.5-4.02h88.51l-65.46,98.19ZM1022.26,187.81l13.82-20.74h-83.67c-6.03,0-11.66,3.02-15.01,8.04l-8.47,12.7h93.32ZM928.94,167.08h-44.16c-6.03,0-11.66,3.01-15.01,8.03l-90.43,135.65h57.98c6.03,0,11.66-3.01,15.01-8.03l76.61-114.92v-20.73ZM521.49,310.76h202.09c6.03,0,11.66-3.01,15.01-8.03l81.09-121.62c4-5.99-.3-14.02-7.5-14.02h-202.09c-6.03,0-11.66,3.01-15.01,8.03l-81.09,121.63c-4,5.99.3,14.02,7.5,14.02ZM682.12,286.01c-1.67,2.51-4.49,4.02-7.5,4.02h-88.51l65.46-98.19c1.67-2.51,4.49-4.02,7.5-4.02h88.51l-65.46,98.19ZM1718.24,120.78h-549.39l31.44-47.17h-57.97c-6.03,0-11.66,3.01-15.01,8.03l-26.09,39.14h-574.02c-6.03,0-11.66,3.01-15.01,8.03l-101.03,151.57V73.61h-57.98c-6.03,0-11.66,3.01-15.01,8.03l-183.58,275.43h57.98c6.03,0,11.66-3.01,15.01-8.03l162.85-244.32v206.04h58.47c6.03,0,11.66-3.01,15.01-8.03l104.79-157.19c1.67-2.51,4.49-4.02,7.5-4.02h511.2l-112.81,169.24h57.97c6.03,0,11.66-3.01,15.01-8.03l104.78-157.19c1.67-2.51,4.49-4.02,7.5-4.02h544.57l13.82-20.73ZM329.7,73.61h-78.42c-6.03,0-11.66,3.02-15.01,8.04l-26.09,39.14h57.97c6.03,0,11.66-3.01,15.01-8.03l9.59-14.39c1.67-2.51,4.49-4.02,7.5-4.02h29.44v-20.74Z"/>
</svg>