<?xml version="1.0" encoding="UTF-8"?>
<svg id="Artwork" xmlns="http://www.w3.org/2000/svg" xmlns:xlink="http://www.w3.org/1999/xlink" viewBox="0 0 566.93 566.93">
  <defs>
    <style>
      .cls-1 {
        fill: none;
      }

      .cls-2 {
        clip-path: url(#clippath-1);
      }

      .cls-3 {
        clip-path: url(#clippath);
      }
    </style>
    <clipPath id="clippath">
      <rect class="cls-1" width="566.93" height="566.93"/>
    </clipPath>
    <clipPath id="clippath-1">
      <rect class="cls-1" x="-14.17" y="-14.17" width="595.28" height="595.28"/>
    </clipPath>
  </defs>
  <g class="cls-3">
    <g class="cls-2">
      <path d="M283.46,544.46c-143.91,0-261-117.08-261-261S139.55,22.47,283.46,22.47s261,117.08,261,261-117.08,261-261,261M283.46,0C126.91,0,0,126.91,0,283.46s126.91,283.46,283.46,283.46,283.46-126.91,283.46-283.46S440.02,0,283.46,0M536,283.46c0,139.25-113.28,252.53-252.53,252.53S30.93,422.71,30.93,283.46,144.22,30.93,283.46,30.93s252.53,113.29,252.53,252.53M477.86,202.76h-49.5c-5.15,0-9.96,2.57-12.81,6.86l-86.23,129.37v-176.49h-49.48c-5.15,0-9.96,2.57-12.81,6.86l-156.69,235.09h49.49c5.15,0,9.96-2.57,12.81-6.85l139-208.54v175.86h49.9c5.15,0,9.96-2.57,12.81-6.86l103.53-155.29ZM259.79,162.49h-66.93c-5.15,0-9.96,2.58-12.81,6.86l-22.27,33.4h49.48c5.15,0,9.96-2.57,12.81-6.86l8.19-12.28c1.43-2.14,3.83-3.43,6.4-3.43h25.13v-17.7Z"/>
    </g>
  </g>
</svg>